<svg width="8" height="8" viewBox="0 0 8 8" fill="none" xmlns="http://www.w3.org/2000/svg">
<g opacity="0.3">
<path d="M7 1.66663L1 1.66663C0.939255 1.66682 0.87971 1.68358 0.827776 1.71509C0.775843 1.74661 0.733488 1.79169 0.70527 1.84548C0.677052 1.89928 0.66404 1.95975 0.667634 2.02039C0.671228 2.08103 0.691293 2.13955 0.725668 2.18963L3.72567 6.52296C3.85 6.70263 4.14933 6.70263 4.274 6.52296L7.274 2.18963C7.30873 2.13965 7.32909 2.08111 7.33288 2.02037C7.33667 1.95963 7.32374 1.89901 7.2955 1.8451C7.26725 1.79119 7.22478 1.74605 7.17268 1.71458C7.12058 1.68312 7.06086 1.66654 7 1.66663Z" fill="white"/>
</g>
</svg>
