<svg width="14" height="14" viewBox="0 0 14 14" fill="none" xmlns="http://www.w3.org/2000/svg">
<path d="M3.70425 11.3441L0.204413 6.79962C-0.125352 6.37141 -0.0479147 5.75394 0.377417 5.42045C0.802722 5.08697 1.41487 5.16375 1.74463 5.59195L4.17842 8.75218L3.70425 11.3441Z" fill="#FFCEBF"/>
<path d="M4.17842 8.75215L0.67858 4.2077C0.348815 3.77949 0.426252 3.16202 0.851584 2.82853C1.27689 2.49505 1.88903 2.57183 2.2188 3.00003L5.71864 7.54451L4.17842 8.75215Z" fill="#FFCEBF"/>
<path d="M7.25882 6.33679L4.4697 2.71514C4.13994 2.28694 4.21737 1.66946 4.64271 1.33598C5.06801 1.00249 5.68016 1.07928 6.00992 1.50748L9.66687 6.25597L7.25882 6.33679Z" fill="#FFCEBF"/>
<path d="M5.00795 6.62165L1.50811 2.0772C1.17834 1.649 1.25578 1.03152 1.68111 0.698039C2.10642 0.364555 2.71856 0.441336 3.04833 0.869539L6.54816 5.41402L5.00795 6.62165Z" fill="#FFCEBF"/>
<path d="M2.99008 10.4167L4.53651 12.4247C5.90739 14.2047 8.452 14.5239 10.22 13.1376C11.1238 12.4289 11.6893 11.3687 11.7769 10.2186L12.201 4.64972C12.2663 3.79241 11.6199 3.05005 10.7687 3.00474C10.5622 2.99375 10.3782 3.13643 10.3357 3.34069L9.80029 5.91059C9.74541 6.17408 9.59948 6.40951 9.3886 6.57485C8.32816 7.40635 7.70904 8.68598 7.71246 10.0392L7.7127 10.1336L9.66691 6.25586L6.54819 4.8514L3.99734 7.15416L2.99008 10.4167Z" fill="#FFCEBF"/>
<path d="M1.74463 5.59195C1.41487 5.16375 0.802751 5.08697 0.377419 5.42045C0.122658 5.62022 -0.00714317 5.92185 0.000485732 6.2237C0.423466 5.92448 1.00862 6.00927 1.32838 6.42446L3.19426 8.84725C3.45693 9.18834 3.98589 9.13723 4.17842 8.75218L1.74463 5.59195Z" fill="#FFB09E"/>
<path d="M1.80255 3.83254L4.54816 7.39767C4.82975 7.76331 5.35543 7.82927 5.71861 7.54448L2.2188 3.00003C1.88904 2.57183 1.27692 2.49505 0.851586 2.82853C0.596824 3.02831 0.467024 3.32993 0.474653 3.63178C0.897633 3.33256 1.48282 3.41735 1.80255 3.83254Z" fill="#FFB09E"/>
<path d="M2.63208 1.70205L6.04285 6.10362C6.33169 6.47638 6.85258 6.57626 7.25883 6.33684L3.04833 0.869539C2.71856 0.441336 2.10645 0.364555 1.68111 0.698039C1.42635 0.897813 1.29655 1.19944 1.30418 1.50129C1.72716 1.20209 2.31232 1.28689 2.63208 1.70205Z" fill="#FFB09E"/>
<path d="M5.17739 1.92373L8.18217 5.82539C8.40857 6.11939 8.76273 6.28632 9.13362 6.27388L9.66685 6.25597L6.0099 1.50748C5.68013 1.07928 5.06802 1.00249 4.64268 1.33598C4.56456 1.39723 4.49831 1.4681 4.44403 1.5456C4.72203 1.55571 4.99359 1.68505 5.17739 1.92373Z" fill="#FFB09E"/>
<path d="M10.7687 3.00486C10.6477 2.99841 10.5346 3.04506 10.453 3.12567C11.0329 3.37573 11.4197 3.97735 11.3685 4.64984L10.9444 10.2187C10.8568 11.3688 10.2913 12.4291 9.38755 13.1377C8.76457 13.6262 8.04519 13.9026 7.3147 13.9783C8.31728 14.0824 9.36042 13.8117 10.22 13.1377C11.1238 12.4291 11.6893 11.3688 11.7768 10.2187L12.2009 4.64984C12.2662 3.79253 11.6199 3.0502 10.7687 3.00486Z" fill="#FFB09E"/>
<path d="M3.13234 13.792C3.1237 13.792 3.11498 13.7914 3.10617 13.7903C2.22907 13.6803 1.44698 13.2314 0.90399 12.5264C0.361435 11.8218 0.123681 10.9472 0.234505 10.0636C0.248806 9.94953 0.352767 9.86873 0.466927 9.88298C0.580978 9.89728 0.661834 10.0013 0.647533 10.1154C0.550435 10.8894 0.758631 11.6554 1.23378 12.2724C1.7085 12.8888 2.39187 13.2812 3.15799 13.3773C3.27204 13.3916 3.3529 13.4956 3.3386 13.6097C3.32539 13.7149 3.23576 13.792 3.13234 13.792Z" fill="#E5E1E5"/>
<path d="M3.2558 12.8079C3.24716 12.8079 3.23843 12.8073 3.22963 12.8062C1.95486 12.6463 1.04885 11.4709 1.21002 10.1859C1.22435 10.0719 1.32834 9.99107 1.44244 10.0053C1.55649 10.0196 1.63735 10.1237 1.62305 10.2377C1.49043 11.2949 2.23437 12.2619 3.28144 12.3932C3.3955 12.4075 3.47635 12.5116 3.46205 12.6256C3.44884 12.7309 3.35918 12.8079 3.2558 12.8079Z" fill="#E5E1E5"/>
<path d="M13.7673 3.91063C13.7587 3.91063 13.75 3.91008 13.7412 3.90898C13.6271 3.89468 13.5462 3.79061 13.5605 3.67656C13.7612 2.07676 12.635 0.613488 11.0501 0.414672C10.9361 0.400371 10.8552 0.296301 10.8695 0.18225C10.8838 0.0681993 10.9876 -0.0126835 11.1019 0.00164461C12.9145 0.229035 14.2028 1.90083 13.9735 3.72838C13.9604 3.83363 13.8707 3.91063 13.7673 3.91063Z" fill="#E5E1E5"/>
<path d="M12.7918 3.78822C12.7832 3.78822 12.7744 3.78768 12.7656 3.78658C12.6516 3.77228 12.5707 3.66821 12.585 3.55416C12.7176 2.49697 11.9737 1.53001 10.9266 1.39868C10.8126 1.38438 10.7317 1.28031 10.746 1.16626C10.7603 1.05221 10.8641 0.971325 10.9784 0.985653C12.2532 1.14556 13.1592 2.32104 12.998 3.60598C12.9848 3.7112 12.8952 3.78822 12.7918 3.78822Z" fill="#E5E1E5"/>
</svg>
