<svg width="121" height="120" viewBox="0 0 121 120" fill="none" xmlns="http://www.w3.org/2000/svg">
<path d="M81.8936 61.4903C82.8864 61.4903 83.6912 60.6855 83.6912 59.6927C83.6912 58.7 82.8864 57.8951 81.8936 57.8951C80.9008 57.8951 80.096 58.7 80.096 59.6927C80.096 60.6855 80.9008 61.4903 81.8936 61.4903Z" fill="#FF004F"/>
<path d="M97.7983 61.4759C98.7911 61.4759 99.5959 60.6711 99.5959 59.6783C99.5959 58.6856 98.7911 57.8807 97.7983 57.8807C96.8056 57.8807 96.0007 58.6856 96.0007 59.6783C96.0007 60.6711 96.8056 61.4759 97.7983 61.4759Z" fill="#FF004F"/>
<path d="M113.778 56.616C110.746 44.808 94.652 44.3544 90.5264 55.9104C90.4616 56.0904 90.0008 58.08 89.8352 57.9504C89.396 55.9944 88.712 54.348 87.5696 52.7112C80.84 43.0632 66.4352 47.6256 65.8784 59.0904C65.5232 66.3768 66.1568 73.9464 65.8784 81.2616C65.7776 81.6792 66.4976 82.0608 66.824 82.1064C68.1032 82.2816 69.7808 81.9648 71.1056 82.104C71.5568 81.8112 71.9216 81.3264 71.9528 80.7648C71.8784 77.5056 72.0776 74.2128 71.8496 70.9728C72.2144 71.112 72.524 71.3256 72.8912 71.4696C75.7112 72.5976 79.4048 72.7704 82.2056 71.5392C86.324 69.7272 88.892 65.7048 89.888 61.4304L90.0824 81.612C90.1904 81.8784 90.404 82.0536 90.6896 82.0968C91.4696 82.2192 94.2416 82.2 95.0576 82.104C95.36 82.068 96.0008 81.6288 96.0008 81.3576V70.9728C96.7016 71.076 97.2896 71.5056 97.9664 71.7384C107.677 75.108 116.24 66.192 113.782 56.6184L113.778 56.616ZM103.714 66.0168C99.1472 68.3448 93.8 63.9624 90.824 60.7848C90.6104 60.5544 90.4472 60.2184 90.176 60.0408H89.6792C86.3168 63.1992 82.5488 67.5816 77.408 66.348C69.896 64.548 71.2664 52.5192 80.0456 53.1744C83.5736 53.4384 87.5264 57.0144 89.6528 59.676H90.0344C90.4544 59.0712 92.0984 57.5616 92.7104 57.0048C94.7024 55.1904 97.328 53.3568 100.112 53.1768C107.562 52.6896 110.281 62.6688 103.71 66.0168H103.714Z" fill="#FF004F"/>
<path d="M36.1688 50.2489C36.164 50.2825 36.0488 50.3185 36.0704 50.3977C36.2456 50.5273 37.4192 49.4641 37.688 49.2817C40.3568 47.4865 44.024 47.1817 46.9712 48.4897C55.3136 52.1929 51.9704 64.1401 52.6712 71.3209C52.5944 72.1369 52.3184 72.2977 51.5288 72.3649C50.5472 72.4465 48.4016 72.4753 47.4488 72.3649C46.8488 72.2953 46.556 71.7865 46.5008 71.2249C46.1096 67.1569 46.7744 62.4457 46.5104 58.2961C46.352 55.8001 44.7944 53.7049 42.1856 53.4769C38.2736 53.1361 36.3536 55.6417 36.1664 59.2897C35.9672 63.1345 36.5216 67.4641 36.176 71.2249C36.14 71.6137 35.9312 72.0289 35.5496 72.1897C35.012 72.4153 31.796 72.4657 31.1576 72.3577C30.8504 72.3073 30.2432 71.8681 30.1544 71.5729L30.116 38.8273C30.2024 38.4169 30.4832 38.0305 30.9008 37.9225C31.4072 37.7929 34.6352 37.7929 35.2208 37.8817C35.6024 37.9393 36.1712 38.4505 36.1712 38.8201V50.2489H36.1688Z" fill="#FF004F"/>
<path d="M8.77761 65.1432C8.96001 64.9008 9.1904 64.6824 9.512 64.7736C10.0088 64.9128 11.2088 65.952 11.7896 66.2808C13.8848 67.464 16.8248 68.232 19.1936 67.5624C21.2576 66.9792 21.968 65.0472 19.9352 63.7992C16.6592 61.788 11.3648 62.3064 8.8544 58.98C6.61521 56.0136 7.05921 51.6264 9.8288 49.1568C13.5296 45.8592 20.924 46.6128 24.8648 49.1304C25.2032 49.3464 26.156 49.9248 26.1296 50.3424C26.0984 50.8704 25.2368 52.0488 24.9608 52.5648C24.608 53.2224 24.38 54.6144 23.4032 54.5712C22.9232 54.5496 22.028 53.664 21.524 53.3664C19.6448 52.26 16.1 51.192 14.1344 52.4688C13.0904 53.1456 12.6704 54.48 13.568 55.4592C14.588 56.5728 19.34 57.4944 21.0392 58.1232C24.6896 59.4744 27.272 61.704 26.9216 65.952C26.228 74.3808 12.524 74.1888 7.59681 70.0752C7.20801 69.7488 6.65121 69.3432 6.82641 68.8152C7.01601 68.244 8.4056 65.6304 8.7752 65.148L8.77761 65.1432Z" fill="#FF004F"/>
<path d="M57.4136 48.336C58.1696 48.2256 60.4016 48.216 61.1552 48.3192C61.4864 48.3648 62.2424 48.7032 62.2784 49.068C62.264 56.6088 62.444 64.2384 62.1872 71.7936L61.5584 72.3576C60.1952 72.2136 58.4048 72.5616 57.0944 72.3552C56.8112 72.3096 56.3 71.8968 56.2472 71.6136V49.5528C56.3336 48.816 56.6816 48.444 57.4136 48.336Z" fill="#FF004F"/>
<path d="M69.6608 38.2727C69.692 38.4815 69.6728 38.4335 69.536 38.4959C68.7056 38.8655 67.8752 38.9183 66.9752 39.4151C63.2456 41.4695 64.0424 44.8079 58.6256 45.8735C58.2296 45.9503 56.6096 46.4519 56.3864 46.1327C56.1416 43.5239 56.7368 40.7375 59.096 39.2879C62.1968 37.3847 66.212 37.9703 69.6608 38.2751V38.2727Z" fill="#FF004F"/>
</svg>
