<svg width="16" height="17" viewBox="0 0 16 17" fill="none" xmlns="http://www.w3.org/2000/svg">
<path d="M16 12.4999C16 12.9714 15.8127 13.4236 15.4793 13.757C15.1459 14.0904 14.6937 14.2777 14.2222 14.2777H1.77778C1.30628 14.2777 0.854097 14.0904 0.520699 13.757C0.187301 13.4236 0 12.9714 0 12.4999V4.49995C0 4.02845 0.187301 3.57626 0.520699 3.24287C0.854097 2.90947 1.30628 2.72217 1.77778 2.72217H14.2222C14.6937 2.72217 15.1459 2.90947 15.4793 3.24287C15.8127 3.57626 16 4.02845 16 4.49995V12.4999Z" fill="#E30917"/>
<path d="M7.11111 11.1667C6.40387 11.1667 5.72559 10.8858 5.22549 10.3857C4.7254 9.88558 4.44445 9.2073 4.44445 8.50006C4.44445 7.79281 4.7254 7.11453 5.22549 6.61444C5.72559 6.11434 6.40387 5.83339 7.11111 5.83339C7.69334 5.83339 8.23111 6.02228 8.66978 6.33917C8.36397 5.99123 7.98748 5.7125 7.56543 5.52159C7.14337 5.33068 6.68545 5.23197 6.22222 5.23206C5.3555 5.23206 4.52427 5.57636 3.9114 6.18923C3.29853 6.8021 2.95422 7.63333 2.95422 8.50006C2.95417 8.92925 3.03865 9.35426 3.20286 9.7508C3.36706 10.1473 3.60777 10.5077 3.91124 10.8112C4.21471 11.1147 4.57499 11.3554 4.97151 11.5197C5.36803 11.684 5.79303 11.7685 6.22222 11.7685C7.19778 11.7685 8.07111 11.3387 8.66978 10.6609C8.21674 10.99 7.67107 11.1671 7.11111 11.1667ZM8.85022 8.60228L9.93467 8.85206L10.0324 9.96006L10.6049 9.00628L11.6893 9.25561L10.9587 8.4165L11.5307 7.46228L10.5071 7.89783L9.77645 7.05828L9.87422 8.16672L8.85022 8.60228Z" fill="white"/>
</svg>
